<svg width="64" height="64" viewBox="0 0 64 64" fill="none" xmlns="http://www.w3.org/2000/svg">
<path d="M5.3335 8H21.3335C24.1625 8 26.8756 9.12381 28.876 11.1242C30.8764 13.1246 32.0002 15.8377 32.0002 18.6667V56C32.0002 53.8783 31.1573 51.8434 29.657 50.3431C28.1567 48.8429 26.1219 48 24.0002 48H5.3335V8Z" stroke="#A36D54" stroke-width="5" stroke-linecap="round" stroke-linejoin="round"/>
<path d="M58.6667 8H42.6667C39.8377 8 37.1246 9.12381 35.1242 11.1242C33.1238 13.1246 32 15.8377 32 18.6667V56C32 53.8783 32.8429 51.8434 34.3431 50.3431C35.8434 48.8429 37.8783 48 40 48H58.6667V8Z" stroke="#A36D54" stroke-width="5" stroke-linecap="round" stroke-linejoin="round"/>
</svg>
